<svg xmlns="http://www.w3.org/2000/svg" width="1440" height="900"><path d="M856,430L950,607L983,458Z" fill="#fd6e32" stroke="#fd6e32" stroke-width="1.51"/><path d="M856,430L754,634L950,607Z" fill="#fd6e32" stroke="#fd6e32" stroke-width="1.51"/><path d="M856,430L682,474L754,634Z" fill="#fd8037" stroke="#fd8037" stroke-width="1.51"/><path d="M754,634L767,735L950,607Z" fill="#fc622e" stroke="#fc622e" stroke-width="1.51"/><path d="M658,615L767,735L754,634Z" fill="#fc6e32" stroke="#fc6e32" stroke-width="1.51"/><path d="M983,458L837,271L856,430Z" fill="#fe8138" stroke="#fe8138" stroke-width="1.51"/><path d="M856,430L837,271L682,474Z" fill="#fe8b3c" stroke="#fe8b3c" stroke-width="1.51"/><path d="M950,607L1142,618L983,458Z" fill="#fb5b2c" stroke="#fb5b2c" stroke-width="1.51"/><path d="M983,458L1034,230L837,271Z" fill="#fe8139" stroke="#fe8139" stroke-width="1.51"/><path d="M945,796L1142,618L950,607Z" fill="#f84928" stroke="#f84928" stroke-width="1.51"/><path d="M682,474L658,615L754,634Z" fill="#fd7d36" stroke="#fd7d36" stroke-width="1.51"/><path d="M1142,618L1159,408L983,458Z" fill="#f8612e" stroke="#f8612e" stroke-width="1.51"/><path d="M767,735L945,796L950,607Z" fill="#f8542a" stroke="#f8542a" stroke-width="1.51"/><path d="M1149,312L1034,230L983,458Z" fill="#fb7835" stroke="#fb7835" stroke-width="1.51"/><path d="M1159,408L1149,312L983,458Z" fill="#f96f31" stroke="#f96f31" stroke-width="1.51"/><path d="M945,796L1096,844L1142,618Z" fill="#f13b23" stroke="#f13b23" stroke-width="1.51"/><path d="M837,271L616,271L682,474Z" fill="#fe9841" stroke="#fe9841" stroke-width="1.51"/><path d="M682,474L451,574L658,615Z" fill="#fe883a" stroke="#fe883a" stroke-width="1.51"/><path d="M620,111L616,271L837,271Z" fill="#fea649" stroke="#fea649" stroke-width="1.51"/><path d="M778,986L997,930L945,796Z" fill="#ea4227" stroke="#ea4227" stroke-width="1.51"/><path d="M945,796L997,930L1096,844Z" fill="#ec3422" stroke="#ec3422" stroke-width="1.51"/><path d="M658,615L589,761L767,735Z" fill="#f96f32" stroke="#f96f32" stroke-width="1.51"/><path d="M487,748L589,761L658,615Z" fill="#fa7734" stroke="#fa7734" stroke-width="1.51"/><path d="M778,986L945,796L767,735Z" fill="#f15027" stroke="#f15027" stroke-width="1.51"/><path d="M1142,618L1379,501L1159,408Z" fill="#f15629" stroke="#f15629" stroke-width="1.51"/><path d="M1159,408L1355,299L1149,312Z" fill="#f36c30" stroke="#f36c30" stroke-width="1.51"/><path d="M1096,844L1303,660L1142,618Z" fill="#ef3622" stroke="#ef3622" stroke-width="1.51"/><path d="M1034,230L974,86L837,271Z" fill="#ff8f42" stroke="#ff8f42" stroke-width="1.51"/><path d="M1176,137L974,86L1034,230Z" fill="#fd8b43" stroke="#fd8b43" stroke-width="1.51"/><path d="M448,464L451,574L682,474Z" fill="#fe943f" stroke="#fe943f" stroke-width="1.51"/><path d="M616,271L448,464L682,474Z" fill="#fe9c42" stroke="#fe9c42" stroke-width="1.51"/><path d="M974,86L859,55L837,271Z" fill="#ff9b4a" stroke="#ff9b4a" stroke-width="1.51"/><path d="M974,86L949,-79L859,55Z" fill="#ffa155" stroke="#ffa155" stroke-width="1.51"/><path d="M1149,312L1176,137L1034,230Z" fill="#f97f39" stroke="#f97f39" stroke-width="1.51"/><path d="M1355,299L1176,137L1149,312Z" fill="#f47633" stroke="#f47633" stroke-width="1.51"/><path d="M1096,844L1335,773L1303,660Z" fill="#e8281f" stroke="#e8281f" stroke-width="1.51"/><path d="M997,930L1133,928L1096,844Z" fill="#e52c23" stroke="#e52c23" stroke-width="1.51"/><path d="M451,574L487,748L658,615Z" fill="#fe7f38" stroke="#fe7f38" stroke-width="1.51"/><path d="M631,952L778,986L767,735Z" fill="#ec5c2d" stroke="#ec5c2d" stroke-width="1.51"/><path d="M1303,660L1379,501L1142,618Z" fill="#ee4326" stroke="#ee4326" stroke-width="1.51"/><path d="M631,952L767,735L589,761Z" fill="#f3662e" stroke="#f3662e" stroke-width="1.51"/><path d="M997,930L1126,1096L1133,928Z" fill="#dc2724" stroke="#dc2724" stroke-width="1.51"/><path d="M616,271L468,247L448,464Z" fill="#fea847" stroke="#fea847" stroke-width="1.51"/><path d="M859,55L620,111L837,271Z" fill="#ffa64e" stroke="#ffa64e" stroke-width="1.51"/><path d="M1303,660L1490,619L1379,501Z" fill="#e54029" stroke="#e54029" stroke-width="1.51"/><path d="M1133,928L1335,773L1096,844Z" fill="#e4211e" stroke="#e4211e" stroke-width="1.51"/><path d="M1379,501L1355,299L1159,408Z" fill="#ed632e" stroke="#ed632e" stroke-width="1.51"/><path d="M407,920L631,952L589,761Z" fill="#ef6d31" stroke="#ef6d31" stroke-width="1.51"/><path d="M620,111L468,247L616,271Z" fill="#feaf4d" stroke="#feaf4d" stroke-width="1.51"/><path d="M487,748L407,920L589,761Z" fill="#f57433" stroke="#f57433" stroke-width="1.51"/><path d="M451,574L341,575L487,748Z" fill="#ff893e" stroke="#ff893e" stroke-width="1.51"/><path d="M448,464L341,575L451,574Z" fill="#ff9744" stroke="#ff9744" stroke-width="1.51"/><path d="M343,444L341,575L448,464Z" fill="#ffa049" stroke="#ffa049" stroke-width="1.51"/><path d="M332,333L343,444L448,464Z" fill="#ffaa4c" stroke="#ffaa4c" stroke-width="1.51"/><path d="M1355,299L1322,114L1176,137Z" fill="#f17b3b" stroke="#f17b3b" stroke-width="1.51"/><path d="M1379,501L1445,337L1355,299Z" fill="#e66232" stroke="#e66232" stroke-width="1.51"/><path d="M1514,454L1445,337L1379,501Z" fill="#e15b31" stroke="#e15b31" stroke-width="1.51"/><path d="M1474,762L1490,619L1303,660Z" fill="#df2e26" stroke="#df2e26" stroke-width="1.51"/><path d="M1133,928L1318,926L1335,773Z" fill="#dd171e" stroke="#dd171e" stroke-width="1.51"/><path d="M1126,1096L1318,926L1133,928Z" fill="#d71a21" stroke="#d71a21" stroke-width="1.51"/><path d="M1497,100L1322,114L1355,299Z" fill="#e9793f" stroke="#e9793f" stroke-width="1.51"/><path d="M1184,-42L949,-79L974,86Z" fill="#ff9a55" stroke="#ff9a55" stroke-width="1.51"/><path d="M1474,762L1303,660L1335,773Z" fill="#e02823" stroke="#e02823" stroke-width="1.51"/><path d="M859,55L632,-118L620,111Z" fill="#ffb75e" stroke="#ffb75e" stroke-width="1.51"/><path d="M1184,-42L974,86L1176,137Z" fill="#fc924b" stroke="#fc924b" stroke-width="1.51"/><path d="M152,756L270,823L341,575Z" fill="#fd9048" stroke="#fd9048" stroke-width="1.51"/><path d="M468,247L332,333L448,464Z" fill="#fead4b" stroke="#fead4b" stroke-width="1.51"/><path d="M275,63L332,333L468,247Z" fill="#ffbe59" stroke="#ffbe59" stroke-width="1.51"/><path d="M778,986L830,1123L997,930Z" fill="#df442b" stroke="#df442b" stroke-width="1.51"/><path d="M613,1175L830,1123L778,986Z" fill="#d35231" stroke="#d35231" stroke-width="1.51"/><path d="M1490,619L1514,454L1379,501Z" fill="#e04b2d" stroke="#e04b2d" stroke-width="1.51"/><path d="M1445,337L1497,100L1355,299Z" fill="#e46f38" stroke="#e46f38" stroke-width="1.51"/><path d="M1013,1128L1126,1096L997,930Z" fill="#d62927" stroke="#d62927" stroke-width="1.51"/><path d="M830,1123L1013,1128L997,930Z" fill="#d8362a" stroke="#d8362a" stroke-width="1.51"/><path d="M1318,926L1474,762L1335,773Z" fill="#da1820" stroke="#da1820" stroke-width="1.51"/><path d="M1677,590L1635,448L1514,454Z" fill="#cf4b2f" stroke="#cf4b2f" stroke-width="1.51"/><path d="M949,-79L844,-104L859,55Z" fill="#ffa95e" stroke="#ffa95e" stroke-width="1.51"/><path d="M620,111L421,46L468,247Z" fill="#ffbb58" stroke="#ffbb58" stroke-width="1.51"/><path d="M1322,114L1184,-42L1176,137Z" fill="#f78a46" stroke="#f78a46" stroke-width="1.51"/><path d="M949,-79L968,-186L844,-104Z" fill="#ffaa65" stroke="#ffaa65" stroke-width="1.51"/><path d="M631,952L613,1175L778,986Z" fill="#dd5b32" stroke="#dd5b32" stroke-width="1.51"/><path d="M270,823L407,920L487,748Z" fill="#f57b39" stroke="#f57b39" stroke-width="1.51"/><path d="M501,-65L421,46L620,111Z" fill="#ffc463" stroke="#ffc463" stroke-width="1.51"/><path d="M844,-104L632,-118L859,55Z" fill="#ffb463" stroke="#ffb463" stroke-width="1.51"/><path d="M341,575L270,823L487,748Z" fill="#fc863f" stroke="#fc863f" stroke-width="1.51"/><path d="M156,589L341,575L343,444Z" fill="#ffa24e" stroke="#ffa24e" stroke-width="1.51"/><path d="M844,-104L672,-193L632,-118Z" fill="#ffbe6e" stroke="#ffbe6e" stroke-width="1.51"/><path d="M1184,-42L968,-186L949,-79Z" fill="#ff9f5e" stroke="#ff9f5e" stroke-width="1.51"/><path d="M632,-118L501,-65L620,111Z" fill="#ffc267" stroke="#ffc267" stroke-width="1.51"/><path d="M493,1134L613,1175L631,952Z" fill="#d66035" stroke="#d66035" stroke-width="1.51"/><path d="M830,1123L613,1175L1013,1128Z" fill="#cb462e" stroke="#cb462e" stroke-width="1.51"/><path d="M493,1134L631,952L407,920Z" fill="#e26a36" stroke="#e26a36" stroke-width="1.51"/><path d="M1322,114L1366,-61L1184,-42Z" fill="#f38b4e" stroke="#f38b4e" stroke-width="1.51"/><path d="M1184,-42L1129,-276L968,-186Z" fill="#ff9f64" stroke="#ff9f64" stroke-width="1.51"/><path d="M1615,114L1497,100L1680,237Z" fill="#d47443" stroke="#d47443" stroke-width="1.51"/><path d="M1514,454L1635,448L1445,337Z" fill="#da5a32" stroke="#da5a32" stroke-width="1.51"/><path d="M1677,590L1514,454L1490,619Z" fill="#d5432d" stroke="#d5432d" stroke-width="1.51"/><path d="M297,1006L493,1134L407,920Z" fill="#e2723c" stroke="#e2723c" stroke-width="1.51"/><path d="M1474,762L1677,590L1490,619Z" fill="#d52d28" stroke="#d52d28" stroke-width="1.51"/><path d="M1318,926L1483,980L1474,762Z" fill="#d00e22" stroke="#d00e22" stroke-width="1.51"/><path d="M1370,1099L1483,980L1318,926Z" fill="#c80824" stroke="#c80824" stroke-width="1.51"/><path d="M1445,-59L1366,-61L1322,114Z" fill="#ec8850" stroke="#ec8850" stroke-width="1.51"/><path d="M1126,1096L1370,1099L1318,926Z" fill="#cc0c22" stroke="#cc0c22" stroke-width="1.51"/><path d="M1013,1128L1370,1099L1126,1096Z" fill="#c71924" stroke="#c71924" stroke-width="1.51"/><path d="M1544,1162L1370,1099L1013,1128Z" fill="#bb0923" stroke="#bb0923" stroke-width="1.51"/><path d="M814,-252L672,-193L844,-104Z" fill="#ffbb71" stroke="#ffbb71" stroke-width="1.51"/><path d="M632,-118L416,-205L501,-65Z" fill="#ffcc74" stroke="#ffcc74" stroke-width="1.51"/><path d="M166,259L343,444L332,333Z" fill="#ffb757" stroke="#ffb757" stroke-width="1.51"/><path d="M64,506L156,589L343,444Z" fill="#ffac56" stroke="#ffac56" stroke-width="1.51"/><path d="M968,-186L814,-252L844,-104Z" fill="#ffb06d" stroke="#ffb06d" stroke-width="1.51"/><path d="M1129,-276L814,-252L968,-186Z" fill="#ffaa6f" stroke="#ffaa6f" stroke-width="1.51"/><path d="M421,46L275,63L468,247Z" fill="#ffc661" stroke="#ffc661" stroke-width="1.51"/><path d="M315,-30L275,63L421,46Z" fill="#ffd16f" stroke="#ffd16f" stroke-width="1.51"/><path d="M315,-30L421,46L501,-65Z" fill="#ffcd6e" stroke="#ffcd6e" stroke-width="1.51"/><path d="M1683,816L1677,590L1474,762Z" fill="#c92326" stroke="#c92326" stroke-width="1.51"/><path d="M100,945L297,1006L270,823Z" fill="#ed8547" stroke="#ed8547" stroke-width="1.51"/><path d="M270,823L297,1006L407,920Z" fill="#ed7d3f" stroke="#ed7d3f" stroke-width="1.51"/><path d="M275,63L166,259L332,333Z" fill="#fec661" stroke="#fec661" stroke-width="1.51"/><path d="M156,589L152,756L341,575Z" fill="#ff9a4e" stroke="#ff9a4e" stroke-width="1.51"/><path d="M1497,100L1445,-59L1322,114Z" fill="#e8844b" stroke="#e8844b" stroke-width="1.51"/><path d="M1310,-266L1129,-276L1184,-42Z" fill="#fc9963" stroke="#fc9963" stroke-width="1.51"/><path d="M1694,-44L1445,-59L1497,100Z" fill="#dd8252" stroke="#dd8252" stroke-width="1.51"/><path d="M275,63L153,87L166,259Z" fill="#ffd26f" stroke="#ffd26f" stroke-width="1.51"/><path d="M416,-205L315,-30L501,-65Z" fill="#ffd277" stroke="#ffd277" stroke-width="1.51"/><path d="M1680,237L1445,337L1635,448Z" fill="#d46035" stroke="#d46035" stroke-width="1.51"/><path d="M1680,237L1497,100L1445,337Z" fill="#db6e3c" stroke="#db6e3c" stroke-width="1.51"/><path d="M1310,-266L1184,-42L1366,-61Z" fill="#f6925b" stroke="#f6925b" stroke-width="1.51"/><path d="M1808,285L1680,237L1635,448Z" fill="#c45d37" stroke="#c45d37" stroke-width="1.51"/><path d="M1641,939L1683,816L1474,762Z" fill="#c40d22" stroke="#c40d22" stroke-width="1.51"/><path d="M1876,394L1808,285L1635,448Z" fill="#be5635" stroke="#be5635" stroke-width="1.51"/><path d="M1641,939L1474,762L1483,980Z" fill="#c60a23" stroke="#c60a23" stroke-width="1.51"/><path d="M166,259L64,506L343,444Z" fill="#ffb95c" stroke="#ffb95c" stroke-width="1.51"/><path d="M156,589L-49,653L152,756Z" fill="#ff9d57" stroke="#ff9d57" stroke-width="1.51"/><path d="M297,1006L272,1085L493,1134Z" fill="#da7340" stroke="#da7340" stroke-width="1.51"/><path d="M493,1134L156,1108L613,1175Z" fill="#ce6a3c" stroke="#ce6a3c" stroke-width="1.51"/><path d="M156,1108L272,1085L297,1006Z" fill="#dc7c49" stroke="#dc7c49" stroke-width="1.51"/><path d="M1544,1162L1641,939L1483,980Z" fill="#b60026" stroke="#b60026" stroke-width="1.51"/><path d="M315,-30L153,87L275,63Z" fill="#fed775" stroke="#fed775" stroke-width="1.51"/><path d="M-63,301L-33,469L64,506Z" fill="#ffbe6b" stroke="#ffbe6b" stroke-width="1.51"/><path d="M315,-30L68,-64L153,87Z" fill="#ffdd7f" stroke="#ffdd7f" stroke-width="1.51"/><path d="M672,-193L416,-205L632,-118Z" fill="#ffca77" stroke="#ffca77" stroke-width="1.51"/><path d="M814,-252L416,-205L672,-193Z" fill="#ffc87a" stroke="#ffc87a" stroke-width="1.51"/><path d="M1499,-196L1366,-61L1445,-59Z" fill="#ea8c5b" stroke="#ea8c5b" stroke-width="1.51"/><path d="M1499,-196L1310,-266L1366,-61Z" fill="#ee9162" stroke="#ee9162" stroke-width="1.51"/><path d="M613,1175L1544,1162L1013,1128Z" fill="#c52527" stroke="#c52527" stroke-width="1.51"/><path d="M1370,1099L1544,1162L1483,980Z" fill="#b80126" stroke="#b80126" stroke-width="1.51"/><path d="M152,756L100,945L270,823Z" fill="#f68b49" stroke="#f68b49" stroke-width="1.51"/><path d="M-3,847L100,945L152,756Z" fill="#f78e50" stroke="#f78e50" stroke-width="1.51"/><path d="M1694,-44L1499,-196L1445,-59Z" fill="#de885c" stroke="#de885c" stroke-width="1.51"/><path d="M1694,-44L1497,100L1615,114Z" fill="#d57d4c" stroke="#d57d4c" stroke-width="1.51"/><path d="M1844,135L1694,-44L1615,114Z" fill="#c6784b" stroke="#c6784b" stroke-width="1.51"/><path d="M1876,394L1635,448L1677,590Z" fill="#c04b31" stroke="#c04b31" stroke-width="1.51"/><path d="M64,506L-49,653L156,589Z" fill="#ffa85e" stroke="#ffa85e" stroke-width="1.51"/><path d="M-63,301L64,506L166,259Z" fill="#ffc269" stroke="#ffc269" stroke-width="1.51"/><path d="M100,945L156,1108L297,1006Z" fill="#e4824c" stroke="#e4824c" stroke-width="1.51"/><path d="M272,1085L156,1108L493,1134Z" fill="#d57544" stroke="#d57544" stroke-width="1.51"/><path d="M56,-290L327,-243L814,-252Z" fill="#ffda8a" stroke="#ffda8a" stroke-width="1.51"/><path d="M814,-252L327,-243L416,-205Z" fill="#ffd080" stroke="#ffd080" stroke-width="1.51"/><path d="M416,-205L327,-243L315,-30Z" fill="#ffd882" stroke="#ffd882" stroke-width="1.51"/><path d="M100,945L-63,949L156,1108Z" fill="#e78855" stroke="#e78855" stroke-width="1.51"/><path d="M-33,469L-49,653L64,506Z" fill="#ffb065" stroke="#ffb065" stroke-width="1.51"/><path d="M-49,653L-3,847L152,756Z" fill="#fd9857" stroke="#fd9857" stroke-width="1.51"/><path d="M1844,135L1615,114L1680,237Z" fill="#c66e42" stroke="#c66e42" stroke-width="1.51"/><path d="M1683,816L1878,579L1677,590Z" fill="#bc2829" stroke="#bc2829" stroke-width="1.51"/><path d="M1881,849L1878,579L1683,816Z" fill="#b61d26" stroke="#b61d26" stroke-width="1.51"/><path d="M1808,921L1683,816L1641,939Z" fill="#b10824" stroke="#b10824" stroke-width="1.51"/><path d="M1878,579L1876,394L1677,590Z" fill="#bd432f" stroke="#bd432f" stroke-width="1.51"/><path d="M1808,285L1844,135L1680,237Z" fill="#bf663d" stroke="#bf663d" stroke-width="1.51"/><path d="M-33,469L-206,645L-49,653Z" fill="#ffad6a" stroke="#ffad6a" stroke-width="1.51"/><path d="M153,87L-63,301L166,259Z" fill="#ffce6f" stroke="#ffce6f" stroke-width="1.51"/><path d="M-64,62L-63,301L153,87Z" fill="#ffd77c" stroke="#ffd77c" stroke-width="1.51"/><path d="M1712,1154L1808,921L1641,939Z" fill="#a50126" stroke="#a50126" stroke-width="1.51"/><path d="M1876,394L1844,135L1808,285Z" fill="#bf6139" stroke="#bf6139" stroke-width="1.51"/><path d="M327,-243L68,-64L315,-30Z" fill="#ffdf86" stroke="#ffdf86" stroke-width="1.51"/><path d="M1544,1162L1712,1154L1641,939Z" fill="#a40026" stroke="#a40026" stroke-width="1.51"/><path d="M1867,1101L1881,849L1808,921Z" fill="#a50425" stroke="#a50425" stroke-width="1.51"/><path d="M1808,921L1881,849L1683,816Z" fill="#ae0924" stroke="#ae0924" stroke-width="1.51"/><path d="M1878,579L1881,849L1876,394Z" fill="#bd332b" stroke="#bd332b" stroke-width="1.51"/><path d="M1844,135L1793,-38L1694,-44Z" fill="#c17850" stroke="#c17850" stroke-width="1.51"/><path d="M1694,-44L1666,-209L1499,-196Z" fill="#d58761" stroke="#d58761" stroke-width="1.51"/><path d="M1793,-38L1666,-209L1694,-44Z" fill="#c8805b" stroke="#c8805b" stroke-width="1.51"/><path d="M1499,-196L1666,-209L1310,-266Z" fill="#e78f68" stroke="#e78f68" stroke-width="1.51"/><path d="M-269,761L-63,949L-3,847Z" fill="#f9965f" stroke="#f9965f" stroke-width="1.51"/><path d="M-3,847L-63,949L100,945Z" fill="#f18e57" stroke="#f18e57" stroke-width="1.51"/><path d="M-269,761L-3,847L-49,653Z" fill="#ff9d62" stroke="#ff9d62" stroke-width="1.51"/><path d="M-222,390L-206,645L-33,469Z" fill="#ffba73" stroke="#ffba73" stroke-width="1.51"/><path d="M68,-64L-64,62L153,87Z" fill="#ffe086" stroke="#ffe086" stroke-width="1.51"/><path d="M-72,-288L-53,-11L68,-64Z" fill="#ffeb9b" stroke="#ffeb9b" stroke-width="1.51"/><path d="M68,-64L-53,-11L-64,62Z" fill="#ffe58f" stroke="#ffe58f" stroke-width="1.51"/><path d="M-222,390L-63,301L-208,289Z" fill="#ffcd7c" stroke="#ffcd7c" stroke-width="1.51"/><path d="M-222,390L-33,469L-63,301Z" fill="#ffc575" stroke="#ffc575" stroke-width="1.51"/><path d="M1712,1154L1867,1101L1808,921Z" fill="#9a0026" stroke="#9a0026" stroke-width="1.51"/><path d="M-208,289L-63,301L-231,110Z" fill="#ffd682" stroke="#ffd682" stroke-width="1.51"/><path d="M-231,110L-63,301L-64,62Z" fill="#ffdb86" stroke="#ffdb86" stroke-width="1.51"/><path d="M327,-243L56,-290L68,-64Z" fill="#ffe897" stroke="#ffe897" stroke-width="1.51"/><path d="M-213,-13L-231,110L-64,62Z" fill="#ffe796" stroke="#ffe796" stroke-width="1.51"/><path d="M1129,-276L56,-290L814,-252Z" fill="#ffc87f" stroke="#ffc87f" stroke-width="1.51"/><path d="M-206,645L-269,761L-49,653Z" fill="#ffa56b" stroke="#ffa56b" stroke-width="1.51"/><path d="M-222,390L-269,761L-206,645Z" fill="#ffb074" stroke="#ffb074" stroke-width="1.51"/><path d="M156,1108L-113,1161L613,1175Z" fill="#cf794a" stroke="#cf794a" stroke-width="1.51"/><path d="M-63,949L-113,1161L156,1108Z" fill="#dd875b" stroke="#dd875b" stroke-width="1.51"/><path d="M-250,986L-113,1161L-63,949Z" fill="#e68e65" stroke="#e68e65" stroke-width="1.51"/><path d="M-222,390L-231,110L-269,761Z" fill="#ffc77e" stroke="#ffc77e" stroke-width="1.51"/><path d="M-208,289L-231,110L-222,390Z" fill="#ffd484" stroke="#ffd484" stroke-width="1.51"/><path d="M-213,-13L-64,62L-53,-11Z" fill="#ffe795" stroke="#ffe795" stroke-width="1.51"/><path d="M-72,-288L-213,-13L-53,-11Z" fill="#ffeda2" stroke="#ffeda2" stroke-width="1.51"/><path d="M1793,-38L1838,-293L1666,-209Z" fill="#c38264" stroke="#c38264" stroke-width="1.51"/><path d="M1666,-209L1838,-293L1310,-266Z" fill="#d88c6c" stroke="#d88c6c" stroke-width="1.51"/><path d="M1310,-266L1838,-293L1129,-276Z" fill="#ed946d" stroke="#ed946d" stroke-width="1.51"/><path d="M1129,-276L1838,-293L56,-290Z" fill="#ffa973" stroke="#ffa973" stroke-width="1.51"/><path d="M1844,135L1838,-293L1793,-38Z" fill="#c27d58" stroke="#c27d58" stroke-width="1.51"/><path d="M1876,394L1838,-293L1844,135Z" fill="#c1754b" stroke="#c1754b" stroke-width="1.51"/><path d="M-269,761L-250,986L-63,949Z" fill="#f59667" stroke="#f59667" stroke-width="1.51"/><path d="M56,-290L-72,-288L68,-64Z" fill="#ffeda3" stroke="#ffeda3" stroke-width="1.51"/><path d="M-113,1161L-245,1195L613,1175Z" fill="#cb7e55" stroke="#cb7e55" stroke-width="1.51"/><path d="M613,1175L-245,1195L1544,1162Z" fill="#c65734" stroke="#c65734" stroke-width="1.51"/><path d="M-250,986L-245,1195L-113,1161Z" fill="#d88b6a" stroke="#d88b6a" stroke-width="1.51"/><path d="M-269,761L-245,1195L-250,986Z" fill="#ed946d" stroke="#ed946d" stroke-width="1.51"/><path d="M56,-290L-192,-288L-72,-288Z" fill="#fff4b3" stroke="#fff4b3" stroke-width="1.51"/><path d="M-72,-288L-192,-288L-213,-13Z" fill="#fff3b0" stroke="#fff3b0" stroke-width="1.51"/><path d="M-213,-13L-192,-288L-231,110Z" fill="#ffefa6" stroke="#ffefa6" stroke-width="1.51"/></svg>